<svg width="40" height="40" viewBox="0 0 40 40" fill="none" xmlns="http://www.w3.org/2000/svg">
<g id="gg:profile">
<g id="Group">
<path id="Vector" fill-rule="evenodd" clip-rule="evenodd" d="M26.6663 15C26.6663 16.7682 25.964 18.4638 24.7137 19.7141C23.4635 20.9643 21.7678 21.6667 19.9997 21.6667C18.2316 21.6667 16.5359 20.9643 15.2856 19.7141C14.0354 18.4638 13.333 16.7682 13.333 15C13.333 13.2319 14.0354 11.5362 15.2856 10.286C16.5359 9.03575 18.2316 8.33337 19.9997 8.33337C21.7678 8.33337 23.4635 9.03575 24.7137 10.286C25.964 11.5362 26.6663 13.2319 26.6663 15ZM23.333 15C23.333 15.8841 22.9818 16.7319 22.3567 17.3571C21.7316 17.9822 20.8837 18.3334 19.9997 18.3334C19.1156 18.3334 18.2678 17.9822 17.6427 17.3571C17.0175 16.7319 16.6663 15.8841 16.6663 15C16.6663 14.116 17.0175 13.2681 17.6427 12.643C18.2678 12.0179 19.1156 11.6667 19.9997 11.6667C20.8837 11.6667 21.7316 12.0179 22.3567 12.643C22.9818 13.2681 23.333 14.116 23.333 15Z" fill="#767494"/>
<path id="Vector_2" fill-rule="evenodd" clip-rule="evenodd" d="M19.9998 1.66669C9.87484 1.66669 1.6665 9.87502 1.6665 20C1.6665 30.125 9.87484 38.3334 19.9998 38.3334C30.1248 38.3334 38.3332 30.125 38.3332 20C38.3332 9.87502 30.1248 1.66669 19.9998 1.66669ZM4.99984 20C4.99984 23.4834 6.18817 26.69 8.17984 29.2367C9.57856 27.3999 11.383 25.9113 13.4522 24.8872C15.5214 23.8631 17.7994 23.3314 20.1082 23.3334C22.3871 23.3312 24.6364 23.8492 26.6847 24.848C28.7331 25.8468 30.5264 27.2999 31.9282 29.0967C33.3723 27.2027 34.3446 24.992 34.7647 22.6477C35.1848 20.3033 35.0406 17.8926 34.344 15.615C33.6474 13.3374 32.4185 11.2584 30.759 9.55008C29.0994 7.84173 27.0569 6.55312 24.8005 5.79087C22.544 5.02862 20.1385 4.81464 17.7829 5.16664C15.4274 5.51864 13.1895 6.42651 11.2545 7.81511C9.31942 9.20371 7.74286 11.0331 6.65522 13.152C5.56758 15.2709 5.00014 17.6183 4.99984 20ZM19.9998 35C16.5564 35.0052 13.2169 33.8206 10.5465 31.6467C11.6214 30.1079 13.0521 28.8516 14.7168 27.9845C16.3816 27.1174 18.2312 26.6654 20.1082 26.6667C21.9618 26.6652 23.789 27.106 25.438 27.9524C27.0871 28.7988 28.5104 30.0265 29.5898 31.5334C26.8987 33.7779 23.5041 35.0049 19.9998 35Z" fill="#767494"/>
</g>
</g>
</svg>
