<svg width="150" height="150" viewBox="0 0 150 150" fill="none" xmlns="http://www.w3.org/2000/svg">
<g id="Group">
<path id="Vector" fill-rule="evenodd" clip-rule="evenodd" d="M102.274 54.5454C102.274 61.7786 99.4006 68.7155 94.286 73.8302C89.1713 78.9448 82.2344 81.8182 75.0012 81.8182C67.7681 81.8182 60.8311 78.9448 55.7165 73.8302C50.6019 68.7155 47.7285 61.7786 47.7285 54.5454C47.7285 47.3123 50.6019 40.3753 55.7165 35.2607C60.8311 30.1461 67.7681 27.2727 75.0012 27.2727C82.2344 27.2727 89.1713 30.1461 94.286 35.2607C99.4006 40.3753 102.274 47.3123 102.274 54.5454ZM88.6376 54.5454C88.6376 58.162 87.2009 61.6305 84.6436 64.1878C82.0863 66.7451 78.6178 68.1818 75.0012 68.1818C71.3847 68.1818 67.9162 66.7451 65.3589 64.1878C62.8016 61.6305 61.3649 58.162 61.3649 54.5454C61.3649 50.9288 62.8016 47.4604 65.3589 44.9031C67.9162 42.3458 71.3847 40.9091 75.0012 40.9091C78.6178 40.9091 82.0863 42.3458 84.6436 44.9031C87.2009 47.4604 88.6376 50.9288 88.6376 54.5454Z" fill="#8D8BA7"/>
<path id="Vector_2" fill-rule="evenodd" clip-rule="evenodd" d="M75 0C33.5795 0 0 33.5795 0 75C0 116.42 33.5795 150 75 150C116.42 150 150 116.42 150 75C150 33.5795 116.42 0 75 0ZM13.6364 75C13.6364 89.25 18.4977 102.368 26.6455 112.786C32.3675 105.272 39.7493 99.1824 48.2143 94.993C56.6793 90.8037 65.9983 88.6282 75.4432 88.6364C84.7659 88.6275 93.9676 90.7468 102.347 94.8326C110.727 98.9185 118.063 104.863 123.798 112.214C129.705 104.465 133.683 95.4219 135.402 85.8313C137.12 76.2407 136.53 66.3786 133.681 57.0613C130.831 47.7439 125.804 39.239 119.015 32.2503C112.226 25.2615 103.87 19.99 94.639 16.8717C85.4081 13.7534 75.5673 12.878 65.9309 14.318C56.2945 15.758 47.1395 19.472 39.2234 25.1526C31.3074 30.8333 24.8578 38.3173 20.4084 46.9854C15.959 55.6536 13.6376 65.2566 13.6364 75ZM75 136.364C60.9133 136.385 47.2518 131.539 36.3273 122.645C40.7245 116.35 46.5773 111.211 53.3877 107.664C60.1981 104.117 67.7645 102.267 75.4432 102.273C83.0261 102.267 90.5011 104.07 97.2472 107.532C103.993 110.995 109.816 116.017 114.232 122.182C103.222 131.364 89.3358 136.384 75 136.364Z" fill="#8D8BA7"/>
</g>
</svg>
