<svg width="80" height="80" viewBox="0 0 80 80" fill="none" xmlns="http://www.w3.org/2000/svg">
<g id="ph:certificate">
<path id="Vector" d="M77.5 40C77.5027 37.129 76.7989 34.3014 75.4508 31.7666C74.1027 29.2317 72.1516 27.0675 69.7697 25.4647C67.3877 23.8619 64.6479 22.8698 61.792 22.5758C58.9361 22.2818 56.0517 22.695 53.3931 23.7789C50.7346 24.8628 48.3835 26.5842 46.5473 28.7912C44.7111 30.9982 43.446 33.6231 42.8637 36.4345C42.2814 39.2458 42.3998 42.1573 43.2083 44.9121C44.0168 47.6669 45.4907 50.1805 47.5 52.2313V70C47.4997 70.4264 47.6084 70.8457 47.8159 71.2182C48.0233 71.5907 48.3226 71.9039 48.6853 72.1282C49.0479 72.3524 49.4619 72.4801 49.8878 72.4993C50.3137 72.5184 50.7375 72.4283 51.1188 72.2375L60 67.7938L68.8813 72.2375C69.2625 72.4283 69.6863 72.5184 70.1122 72.4993C70.5382 72.4801 70.9521 72.3524 71.3148 72.1282C71.6774 71.9039 71.9767 71.5907 72.1841 71.2182C72.3916 70.8457 72.5003 70.4264 72.5 70V52.2313C75.7064 48.9678 77.5021 44.5751 77.5 40ZM60 27.5C62.4723 27.5 64.889 28.2331 66.9446 29.6066C69.0002 30.9801 70.6024 32.9324 71.5485 35.2165C72.4946 37.5005 72.7421 40.0139 72.2598 42.4386C71.7775 44.8634 70.587 47.0907 68.8388 48.8388C67.0907 50.587 64.8634 51.7775 62.4386 52.2598C60.0139 52.7421 57.5005 52.4946 55.2165 51.5485C52.9324 50.6024 50.9802 49.0002 49.6066 46.9446C48.2331 44.889 47.5 42.4723 47.5 40C47.5 36.6848 48.817 33.5054 51.1612 31.1612C53.5054 28.817 56.6848 27.5 60 27.5ZM61.1188 62.7625C60.7714 62.5887 60.3884 62.4982 60 62.4982C59.6116 62.4982 59.2286 62.5887 58.8813 62.7625L52.5 65.9562V55.8094C54.8436 56.9225 57.4055 57.5 60 57.5C62.5945 57.5 65.1564 56.9225 67.5 55.8094V65.9562L61.1188 62.7625ZM42.5 60C42.5 60.663 42.2366 61.2989 41.7678 61.7678C41.2989 62.2366 40.663 62.5 40 62.5H12.5C11.1739 62.5 9.90215 61.9732 8.96447 61.0355C8.02678 60.0979 7.5 58.8261 7.5 57.5V17.5C7.5 16.1739 8.02678 14.9021 8.96447 13.9645C9.90215 13.0268 11.1739 12.5 12.5 12.5H67.5C68.8261 12.5 70.0979 13.0268 71.0355 13.9645C71.9732 14.9021 72.5 16.1739 72.5 17.5C72.5 18.163 72.2366 18.7989 71.7678 19.2678C71.2989 19.7366 70.663 20 70 20C69.337 20 68.7011 19.7366 68.2322 19.2678C67.7634 18.7989 67.5 18.163 67.5 17.5H12.5V57.5H40C40.663 57.5 41.2989 57.7634 41.7678 58.2322C42.2366 58.7011 42.5 59.337 42.5 60ZM37.5 42.5C37.5 43.163 37.2366 43.7989 36.7678 44.2678C36.2989 44.7366 35.663 45 35 45H22.5C21.837 45 21.2011 44.7366 20.7322 44.2678C20.2634 43.7989 20 43.163 20 42.5C20 41.837 20.2634 41.2011 20.7322 40.7322C21.2011 40.2634 21.837 40 22.5 40H35C35.663 40 36.2989 40.2634 36.7678 40.7322C37.2366 41.2011 37.5 41.837 37.5 42.5ZM37.5 32.5C37.5 33.163 37.2366 33.7989 36.7678 34.2678C36.2989 34.7366 35.663 35 35 35H22.5C21.837 35 21.2011 34.7366 20.7322 34.2678C20.2634 33.7989 20 33.163 20 32.5C20 31.837 20.2634 31.2011 20.7322 30.7322C21.2011 30.2634 21.837 30 22.5 30H35C35.663 30 36.2989 30.2634 36.7678 30.7322C37.2366 31.2011 37.5 31.837 37.5 32.5Z" fill="black"/>
</g>
</svg>
