<svg width="26" height="25" viewBox="0 0 26 25" fill="none" xmlns="http://www.w3.org/2000/svg">
<path d="M18.8171 15.1257C18.817 16.4176 18.4676 17.6887 17.8011 18.822C17.1345 19.9554 16.1723 20.9145 15.0029 21.6111C13.8335 22.3078 12.4946 22.7196 11.1093 22.8086C9.72404 22.8976 8.33696 22.661 7.07574 22.1205C5.81452 21.58 4.7197 20.7531 3.89205 19.7158C3.0644 18.6784 2.53051 17.4641 2.33953 16.1845C2.14856 14.9049 2.30662 13.6011 2.79918 12.3933C3.29175 11.1854 4.10298 10.1122 5.1582 9.27246" stroke="#767494" stroke-width="2" stroke-linecap="round" stroke-linejoin="round"/>
<path d="M10.1747 12.2753C9.99976 12.6114 9.90918 12.9801 9.90982 13.3535C9.90762 13.6636 9.97164 13.9709 10.0982 14.2578C10.2247 14.5446 10.4112 14.8053 10.6468 15.0245C10.8825 15.2438 11.1626 15.4173 11.4709 15.535C11.7793 15.6527 12.1097 15.7123 12.4429 15.7102C12.781 15.7102 13.1053 15.8352 13.3444 16.0576C13.5834 16.28 13.7177 16.5817 13.7177 16.8963V22.2412M2.37675 16.3109H5.43965C5.78001 16.3027 6.11869 16.358 6.43571 16.4735C6.75273 16.589 7.04168 16.7625 7.28549 16.9835C7.52931 17.2046 7.72306 17.4689 7.85531 17.7608C7.98757 18.0527 8.05564 18.3663 8.05553 18.6831V22.4569M23.3866 4.91247L21.7309 4.38876C21.6146 4.35199 21.4885 4.35165 21.3719 4.38781C21.2553 4.42396 21.1546 4.49463 21.0853 4.589L19.8767 6.32958L13.2542 3.24891C12.7308 2.96193 12.1457 2.78612 11.5407 2.73407C10.9358 2.68202 10.3259 2.75501 9.75482 2.94782C9.18373 3.14063 8.6655 3.44849 8.23721 3.84938C7.80892 4.25026 7.48116 4.73426 7.27739 5.26675C7.22123 5.40489 7.1971 5.55252 7.20659 5.69994C7.21608 5.84737 7.25897 5.99126 7.33246 6.12218C7.40594 6.25309 7.50835 6.36807 7.63297 6.45956C7.75758 6.55105 7.90159 6.61699 8.05553 6.65305L12.3767 7.94693L12.8072 8.08556L13.6184 10.6733C13.6445 10.7634 13.6945 10.846 13.764 10.9133C13.8335 10.9806 13.9201 11.0305 14.0158 11.0584L15.9694 11.6437C16.0691 11.674 16.1755 11.6799 16.2784 11.6608C16.3813 11.6418 16.4772 11.5986 16.557 11.5352C16.6368 11.4718 16.6977 11.3904 16.7339 11.2989C16.7702 11.2073 16.7806 11.1086 16.7641 11.0122L16.3336 9.08678H16.6151L20.8369 10.3653C21.1136 10.454 21.4167 10.4374 21.6803 10.3191C21.9439 10.2008 22.1466 9.99041 22.2442 9.73372L23.7342 5.46699C23.7506 5.35177 23.7254 5.23475 23.6624 5.13436C23.5995 5.03397 23.5024 4.95591 23.3866 4.91247Z" stroke="#767494" stroke-width="2" stroke-linecap="round" stroke-linejoin="round"/>
</svg>
