<svg width="17" height="16" viewBox="0 0 17 16" fill="none" xmlns="http://www.w3.org/2000/svg">
<g id="Line Rounded/User">
<g id="User">
<g id="Group">
<path id="Vector" d="M2.66663 14.6667V13.8333C2.66663 13.0673 2.81751 12.3087 3.11066 11.601C3.40381 10.8933 3.83349 10.2502 4.37517 9.70854C4.91684 9.16687 5.55991 8.73719 6.26764 8.44404C6.97537 8.15088 7.73392 8 8.49996 8C9.266 8 10.0245 8.15088 10.7323 8.44404C11.44 8.73719 12.0831 9.16687 12.6247 9.70854C13.1664 10.2502 13.5961 10.8933 13.8893 11.601C14.1824 12.3087 14.3333 13.0673 14.3333 13.8333V14.6667" stroke="#121212" stroke-width="2" stroke-linecap="round" stroke-linejoin="round"/>
<path id="Vector_2" d="M8.4999 8.00016C9.38395 8.00016 10.2318 7.64897 10.8569 7.02385C11.482 6.39873 11.8332 5.55088 11.8332 4.66683C11.8332 3.78277 11.482 2.93493 10.8569 2.30981C10.2318 1.68469 9.38395 1.3335 8.4999 1.3335C7.61584 1.3335 6.768 1.68469 6.14288 2.30981C5.51775 2.93493 5.16656 3.78277 5.16656 4.66683C5.16656 5.55088 5.51775 6.39873 6.14288 7.02385C6.768 7.64897 7.61584 8.00016 8.4999 8.00016V8.00016Z" stroke="#121212" stroke-width="2" stroke-linecap="round" stroke-linejoin="round"/>
</g>
</g>
</g>
</svg>
