<svg width="85" height="84" viewBox="0 0 85 84" fill="none" xmlns="http://www.w3.org/2000/svg">
<path id="Vector" d="M36.6663 49.4999L27.6038 40.4374C26.84 39.6735 25.9025 39.2916 24.7913 39.2916C23.6802 39.2916 22.708 39.7083 21.8747 40.5416C21.1108 41.3055 20.7288 42.2777 20.7288 43.4583C20.7288 44.6388 21.1108 45.611 21.8747 46.3749L33.7497 58.2499C34.5136 59.0138 35.4858 59.3958 36.6663 59.3958C37.8469 59.3958 38.8191 59.0138 39.583 58.2499L63.2288 34.6041C63.9927 33.8402 64.3747 32.9027 64.3747 31.7916C64.3747 30.6805 63.958 29.7083 63.1247 28.8749C62.3608 28.111 61.3886 27.7291 60.208 27.7291C59.0275 27.7291 58.0552 28.111 57.2913 28.8749L36.6663 49.4999ZM42.4997 83.6666C36.7358 83.6666 31.3191 82.5721 26.2497 80.3833C21.1802 78.1944 16.7705 75.2263 13.0205 71.4791C9.27051 67.7291 6.30245 63.3194 4.11634 58.2499C1.93023 53.1805 0.835786 47.7638 0.833008 41.9999C0.833008 36.236 1.92745 30.8194 4.11634 25.7499C6.30523 20.6805 9.27329 16.2708 13.0205 12.5208C16.7705 8.77075 21.1802 5.8027 26.2497 3.61659C31.3191 1.43047 36.7358 0.33603 42.4997 0.333252C48.2636 0.333252 53.6802 1.4277 58.7497 3.61659C63.8191 5.80548 68.2289 8.77353 71.9789 12.5208C75.7289 16.2708 78.6983 20.6805 80.8872 25.7499C83.0761 30.8194 84.1691 36.236 84.1664 41.9999C84.1664 47.7638 83.0719 53.1805 80.883 58.2499C78.6941 63.3194 75.7261 67.7291 71.9789 71.4791C68.2289 75.2291 63.8191 78.1985 58.7497 80.3874C53.6802 82.5763 48.2636 83.6694 42.4997 83.6666Z" fill="#4AD150"/>
</svg>
