<svg width="94" height="94" viewBox="0 0 94 94" fill="none" xmlns="http://www.w3.org/2000/svg">
<g id="icon-park-outline:baby-feet">
<g id="Group">
<path id="Vector" d="M49.7645 31.0555C39.2514 30.6418 39.1578 44.0918 31.4809 42.3829C23.8053 40.672 23.9182 33.5502 16.9713 35.6655C10.0231 37.7829 11.65 46.8689 17.4954 54.31C29.1875 69.1903 48.5146 69.0791 55.2861 60.0477C63.6065 48.9484 60.2775 31.4693 49.7645 31.0555Z" stroke="#79C258" stroke-width="7"/>
<path id="Vector_2" d="M63.0788 58.3917C62.1802 59.9985 63.4055 62.3937 65.8156 63.7416C68.2257 65.0895 70.9079 64.8796 71.8065 63.2729C72.7051 61.6662 71.4798 59.271 69.0697 57.9231C66.6596 56.5752 63.9774 56.785 63.0788 58.3917Z" fill="#79C258"/>
<path id="Vector_3" d="M65.7884 50.2517C65.3363 52.0363 67.1398 54.0328 69.8166 54.711C72.4935 55.3891 75.03 54.4922 75.4821 52.7077C75.9343 50.9231 74.1308 48.9267 71.4539 48.2485C68.7771 47.5703 66.2405 48.4672 65.7884 50.2517Z" fill="#79C258"/>
<path id="Vector_4" d="M65.4197 41.7614C65.5732 43.5959 67.9284 44.8965 70.6802 44.6662C73.432 44.4359 75.5384 42.7621 75.3849 40.9276C75.2314 39.093 72.8762 37.7925 70.1243 38.0227C67.3725 38.253 65.2662 39.9269 65.4197 41.7614Z" fill="#79C258"/>
<path id="Vector_5" d="M64.3741 28.8976C65.7874 31.27 69.4973 31.6656 72.6605 29.7812C75.8237 27.8969 77.2422 24.4461 75.829 22.0738C74.4157 19.7014 70.7058 19.3058 67.5426 21.1901C64.3794 23.0745 62.9609 26.5252 64.3741 28.8976Z" stroke="#79C258" stroke-width="7"/>
<path id="Vector_6" d="M58.2655 65.4675C57.1015 66.8937 57.8923 69.4653 60.0318 71.2113C62.1712 72.9572 64.8491 73.2163 66.0131 71.79C67.177 70.3638 66.3863 67.7922 64.2468 66.0462C62.1074 64.3003 59.4295 64.0412 58.2655 65.4675Z" fill="#79C258"/>
</g>
</g>
</svg>
