<svg width="17" height="16" viewBox="0 0 17 16" fill="none" xmlns="http://www.w3.org/2000/svg">
<g id="Line Rounded/Care">
<g id="Care">
<path id="Vector" d="M8.49993 11.5671C8.4223 11.5671 8.34641 11.5902 8.28186 11.6333C8.21732 11.6764 8.16701 11.7377 8.1373 11.8094C8.10759 11.8812 8.09982 11.9601 8.11496 12.0362C8.13011 12.1124 8.16749 12.1823 8.22238 12.2372C8.27728 12.2921 8.34722 12.3295 8.42335 12.3446C8.49949 12.3598 8.57841 12.352 8.65014 12.3223C8.72186 12.2926 8.78316 12.2423 8.82629 12.1777C8.86942 12.1132 8.89244 12.0373 8.89244 11.9596C8.89244 11.8555 8.85108 11.7557 8.77747 11.6821C8.70386 11.6085 8.60403 11.5671 8.49993 11.5671Z" fill="#FF002F" stroke="#FF002F" stroke-linecap="round" stroke-linejoin="round"/>
<path id="Vector_2" d="M8.5 9.77188V5.32739" stroke="#FF002F" stroke-linecap="round"/>
<path id="Vector_3" d="M9.46072 1.93164C9.37253 1.75209 9.23578 1.60085 9.06598 1.49508C8.89619 1.38932 8.70016 1.33325 8.50012 1.33325C8.30008 1.33325 8.10404 1.38932 7.93425 1.49508C7.76446 1.60085 7.62771 1.75209 7.53951 1.93164L1.92583 13.3676C1.85825 13.5051 1.82682 13.6575 1.83451 13.8105C1.8422 13.9635 1.88874 14.112 1.96975 14.2419C2.05076 14.3719 2.16357 14.4792 2.29752 14.5535C2.43147 14.6278 2.58214 14.6667 2.73532 14.6666H14.2649C14.4181 14.6667 14.5688 14.6278 14.7027 14.5535C14.8367 14.4792 14.9495 14.3719 15.0305 14.2419C15.1115 14.112 15.158 13.9635 15.1657 13.8105C15.1734 13.6575 15.142 13.5051 15.0744 13.3676L9.46072 1.93164Z" stroke="#FF002F" stroke-linecap="round" stroke-linejoin="round"/>
</g>
</g>
</svg>
