<svg width="471" height="471" viewBox="0 0 471 471" fill="none" xmlns="http://www.w3.org/2000/svg">
<path d="M258.99 97.5364C280.35 101.196 300.55 109.816 317.97 122.716H442.47C410.17 63.0664 353.75 20.2164 287.62 5.10645C257.11 32.9064 256.9 76.3364 258.98 97.5364H258.99Z" fill="#019961"/>
<path d="M28.3203 122.716H152.82C170.24 109.816 190.44 101.196 211.8 97.5364C213.88 76.3264 213.67 32.9064 183.14 5.10645C117.02 20.2264 60.6103 63.0764 28.3203 122.716Z" fill="#019961"/>
<path d="M374.52 234.646C374.52 236.556 374.45 238.456 374.38 240.346H470.67C470.71 238.446 470.81 236.556 470.81 234.646C470.86 195.566 461.12 157.086 442.48 122.736H317.98C353.56 148.916 374.55 190.466 374.52 234.646Z" fill="#3DAD5C"/>
<path d="M96.2702 234.646C96.2402 190.466 117.24 148.916 152.82 122.746H28.3202C9.69019 157.096 -0.0498085 195.566 0.000191537 234.646C0.000191537 236.556 0.100192 238.446 0.140192 240.346H96.4302C96.3402 238.436 96.2702 236.536 96.2702 234.646Z" fill="#3DAD5C"/>
<path d="M193.59 240.326H0.130371C1.05037 281.916 13.0404 322.516 34.8604 357.936H272.48C229.68 335.526 195.65 291.496 193.58 240.326H193.59Z" fill="#79C258"/>
<path d="M324.24 240.326C322.18 291.496 265.67 335.526 222.86 357.936H435.93C457.75 322.516 469.74 281.916 470.66 240.326H324.24Z" fill="#79C258"/>
<path d="M308.51 357.917H34.8701C102.97 468.667 247.97 503.247 358.72 435.137C390.16 415.807 416.61 389.357 435.94 357.917H299.84" fill="#B5D653"/>
<path d="M401.15 240.326H45.7803V357.936H401.15V240.326Z" fill="#79C258"/>
<path d="M421.05 122.717H65.6802V240.327H421.05V122.717Z" fill="#3DAD5C"/>
<path d="M287.62 5.10645C287.62 5.10645 225.54 -7.96355 172.83 7.71645C132.25 19.7864 113.81 50.6964 118.27 68.5464C122.73 86.3964 120.43 122.986 120.43 122.986H356.27" fill="#019961"/>
<path d="M127.13 331.066V331.096L127.19 331.176C127.27 331.346 127.35 331.506 127.42 331.676C134.82 298.006 165.73 200.156 278.89 167.456L279.7 167.196C279.42 167.276 279.16 167.376 278.89 167.456C269.34 170.526 169.16 206.316 166.19 353.946C274.4 381.166 294.08 262.666 317.25 189.786C323.12 170.196 331.19 151.336 341.3 133.556C341.3 133.556 63.3704 129.426 127.13 331.056V331.066Z" fill="white"/>
</svg>
