<svg width="17" height="16" viewBox="0 0 17 16" fill="none" xmlns="http://www.w3.org/2000/svg">
<g id="Line Rounded/Email">
<g id="Email">
<path id="Vector" d="M15.1667 4.75964V11.4263C15.1667 11.8683 14.9911 12.2923 14.6786 12.6048C14.366 12.9174 13.9421 13.093 13.5 13.093H3.50004C3.05801 13.093 2.63409 12.9174 2.32153 12.6048C2.00897 12.2923 1.83337 11.8683 1.83337 11.4263V4.75964" stroke="#767494" stroke-width="1.5" stroke-linecap="round" stroke-linejoin="round"/>
<path id="Vector_2" d="M15.1667 4.75968C15.1667 4.31766 14.9911 3.89373 14.6786 3.58117C14.366 3.26861 13.9421 3.09302 13.5 3.09302H3.50004C3.05801 3.09302 2.63409 3.26861 2.32153 3.58117C2.00897 3.89373 1.83337 4.31766 1.83337 4.75968L7.61671 8.3708C7.88159 8.53635 8.18767 8.62413 8.50004 8.62413C8.81241 8.62413 9.11849 8.53635 9.38337 8.3708L15.1667 4.75968Z" stroke="#767494" stroke-width="1.5" stroke-linecap="round" stroke-linejoin="round"/>
</g>
</g>
</svg>
