<svg width="17" height="16" viewBox="0 0 17 16" fill="none" xmlns="http://www.w3.org/2000/svg">
<g id="Line Rounded/Eye" clip-path="url(#clip0_217_291)">
<g id="Eye">
<g id="Group">
<path id="Vector" d="M8.33301 3.42632C7.88348 3.42067 7.43518 3.47447 6.99974 3.58631C5.05791 4.07281 3.18482 5.59037 1.92088 7.13577C1.75657 7.34466 1.66724 7.60271 1.66724 7.86848C1.66724 8.13425 1.75657 8.3923 1.92088 8.60119C3.16526 10.1205 5.03362 11.6647 7.00211 12.1566C7.43692 12.2673 7.88437 12.3205 8.33301 12.3148C8.78245 12.3207 9.23071 12.2675 9.66628 12.1566C11.6348 11.6665 13.5049 10.1217 14.7469 8.60119C14.9112 8.3923 15.0006 8.13425 15.0006 7.86848C15.0006 7.60271 14.9112 7.34466 14.7469 7.13577C13.4824 5.58977 11.6063 4.07222 9.66628 3.58572C9.23081 3.47417 8.78251 3.42057 8.33301 3.42632V3.42632Z" stroke="#767494" stroke-width="1.5" stroke-linecap="round" stroke-linejoin="round"/>
</g>
<ellipse id="Ellipse 431" cx="8.33353" cy="7.70389" rx="1.2952" ry="1.2952" stroke="#767494" stroke-width="1.5" stroke-linecap="round" stroke-linejoin="round"/>
</g>
</g>
<defs>
<clipPath id="clip0_217_291">
<rect width="16" height="16" fill="white" transform="translate(0.5)"/>
</clipPath>
</defs>
</svg>
