<svg width="184" height="186" viewBox="0 0 184 186" fill="none" xmlns="http://www.w3.org/2000/svg">
<g id="Frame 15">
<g id="Group">
<path id="Vector" d="M138.042 112.552C138.041 123.542 135.276 134.356 130 143.998C124.725 153.64 117.109 161.799 107.853 167.726C98.5975 173.652 87.9997 177.156 77.0353 177.913C66.0709 178.67 55.0921 176.657 45.1096 172.059C35.1271 167.461 26.4617 160.426 19.9108 151.601C13.36 142.776 9.13426 132.445 7.62267 121.559C6.11108 110.673 7.36218 99.5815 11.2608 89.3057C15.1594 79.0299 21.5803 69.8998 29.9324 62.756" stroke="#068758" stroke-width="14" stroke-linecap="square" stroke-linejoin="round"/>
<path id="Vector_2" d="M69.6382 88.3092C68.2534 91.1685 67.5365 94.3051 67.5416 97.4821C67.5242 100.12 68.0309 102.735 69.0323 105.175C70.0337 107.616 71.5099 109.833 73.3751 111.698C75.2403 113.563 77.4575 115.039 79.8978 116.041C82.3382 117.042 84.9532 117.549 87.591 117.532C90.2671 117.532 92.8336 118.595 94.7259 120.487C96.6181 122.379 97.6812 124.946 97.6812 127.622V173.093M7.91748 122.642H32.1602C34.8542 122.572 37.5348 123.042 40.044 124.025C42.5533 125.008 44.8402 126.483 46.77 128.364C48.6998 130.245 50.2334 132.494 51.2802 134.977C52.3269 137.46 52.8658 140.128 52.8649 142.823V174.928M174.21 25.6711L161.106 21.2157C160.184 20.9029 159.186 20.9 158.264 21.2076C157.341 21.5152 156.544 22.1164 155.995 22.9193L146.429 37.727L94.012 11.5186C89.8693 9.07714 85.2382 7.58149 80.45 7.13866C75.6618 6.69583 70.8349 7.31678 66.3147 8.95708C61.7945 10.5974 57.6927 13.2165 54.3029 16.627C50.913 20.0375 48.3188 24.155 46.7059 28.6851C46.2614 29.8603 46.0704 31.1162 46.1455 32.3704C46.2206 33.6247 46.5602 34.8488 47.1418 35.9626C47.7234 37.0763 48.534 38.0544 49.5203 38.8328C50.5066 39.6112 51.6464 40.1721 52.8649 40.4789L87.0668 51.4864L90.4739 52.6658L96.895 74.6808C97.1012 75.4474 97.4976 76.1495 98.0473 76.7222C98.5971 77.2949 99.2824 77.7195 100.04 77.9569L115.503 82.9365C116.292 83.1936 117.135 83.2438 117.949 83.0821C118.763 82.9204 119.522 82.5523 120.154 82.0131C120.785 81.4739 121.267 80.7815 121.554 80.0025C121.841 79.2234 121.924 78.3837 121.793 77.5638L118.386 61.1835H120.614L154.029 72.06C156.219 72.8149 158.619 72.6738 160.705 71.6674C162.791 70.6611 164.395 68.871 165.168 66.6873L176.962 30.3887C177.091 29.4084 176.891 28.4129 176.393 27.5588C175.895 26.7047 175.127 26.0406 174.21 25.6711Z" stroke="#068758" stroke-width="14" stroke-linecap="round" stroke-linejoin="round"/>
</g>
</g>
</svg>
