<svg width="180" height="180" viewBox="0 0 180 180" fill="none" xmlns="http://www.w3.org/2000/svg">
<g id="mdi:food-outline">
<path id="Vector" d="M7.5 165C7.5 169.05 10.875 172.5 15 172.5H112.5C116.7 172.5 120 169.05 120 165V157.5H7.5V165ZM63.75 67.5C35.625 67.5 7.5 82.5 7.5 112.5H120C120 82.5 91.875 67.5 63.75 67.5ZM27.15 97.5C35.475 85.875 53.175 82.5 63.75 82.5C74.325 82.5 92.025 85.875 100.35 97.5H27.15ZM7.5 127.5H120V142.5H7.5V127.5ZM135 37.5V7.5H120V37.5H82.5L84.225 52.5H155.925L145.425 157.5H135V172.5H147.9C154.2 172.5 159.375 167.625 160.125 161.475L172.5 37.5H135Z" fill="#4ECB71"/>
</g>
</svg>
