<svg width="17" height="16" viewBox="0 0 17 16" fill="none" xmlns="http://www.w3.org/2000/svg">
<g id="Line Rounded/Password">
<g id="Password">
<path id="Line" d="M11.8333 6.09302H5.16667C4.24619 6.09302 3.5 6.83921 3.5 7.75968V12.7597C3.5 13.6802 4.24619 14.4264 5.16667 14.4264H11.8333C12.7538 14.4264 13.5 13.6802 13.5 12.7597V7.75968C13.5 6.83921 12.7538 6.09302 11.8333 6.09302Z" stroke="#767494" stroke-width="1.5" stroke-linecap="round" stroke-linejoin="round"/>
<path id="Line_2" d="M8.49996 1.09302C7.6159 1.09302 6.76806 1.44421 6.14294 2.06933C5.51781 2.69445 5.16663 3.5423 5.16663 4.42635V6.09302H11.8333V4.42635C11.8333 3.5423 11.4821 2.69445 10.857 2.06933C10.2319 1.44421 9.38401 1.09302 8.49996 1.09302V1.09302Z" stroke="#767494" stroke-width="1.5" stroke-linecap="round" stroke-linejoin="round"/>
</g>
</g>
</svg>
